<!-- icon666.com - MILLIONS vector ICONS FREE --><svg version="1.1" id="Capa_1" xmlns="http://www.w3.org/2000/svg" xmlns:xlink="http://www.w3.org/1999/xlink" x="0px" y="0px" viewBox="0 0 58 58" style="enable-background:new 0 0 58 58;" xml:space="preserve"><g><g><path d="M29,0C13.009,0,0,13.01,0,29s13.009,29,29,29s29-13.01,29-29S44.991,0,29,0z M29,56C14.112,56,2,43.888,2,29 S14.112,2,29,2s27,12.112,27,27S43.888,56,29,56z"></path><path d="M46,34c-0.552,0-1,0.447-1,1c0,3.584-2.916,6.5-6.5,6.5l-0.108-0.001c-1.961-0.032-3.624-1.134-4.447-2.948 c-0.861-1.896-0.566-4.056,0.771-5.637c1.484-1.755,2.791-3.909,3.883-6.401c1.37-3.124,1.143-6.74-0.607-9.673 c-1.669-2.796-4.451-4.547-7.633-4.806C30.075,12.012,29.789,12,29.5,12C23.514,12,19,16.299,19,22v6.075 c-3.663,0.491-6.5,3.629-6.5,7.425c0,4.136,3.364,7.5,7.5,7.5s7.5-3.364,7.5-7.5c0-3.796-2.837-6.934-6.5-7.425V22 c0-4.561,3.654-8,8.5-8c0.235,0,0.469,0.01,0.698,0.028c2.528,0.205,4.743,1.604,6.076,3.837c1.42,2.378,1.604,5.311,0.493,7.845 c-1.015,2.315-2.219,4.305-3.579,5.913c-1.841,2.177-2.249,5.148-1.065,7.755c1.134,2.498,3.524,4.077,6.229,4.121L38.5,43.5 c4.687,0,8.5-3.813,8.5-8.5C47,34.447,46.553,34,46,34z M25.5,35.5c0,3.032-2.467,5.5-5.5,5.5s-5.5-2.468-5.5-5.5S16.967,30,20,30 S25.5,32.468,25.5,35.5z"></path></g></g></svg>